<svg width="0" height="0" class="hidden">
  <symbol fill="none" xmlns="http://www.w3.org/2000/svg" viewBox="0 0 44 44" id="menu">
    <path d="M15.1895 32.417L27.4033 34.5762C29.5947 34.9629 30.9268 33.749 30.9268 31.3535V18.0654C30.9268 16.8945 30.6045 16.1211 29.9707 15.5947V13.5107C29.9707 11.2549 28.4561 10.1699 25.9102 10.6211L14.8564 12.5762C13.7607 12.7051 13.0732 13.5322 13.0732 14.8213V29.9785C13.0732 31.3643 13.7822 32.1699 15.1895 32.417ZM27.6182 14.7031L19.9053 13.3389L26.5225 12.2432C27.5967 12.0605 28.2412 12.5117 28.2412 13.4463V14.832C28.0371 14.7783 27.833 14.7354 27.6182 14.7031ZM15.6084 30.709C15.0605 30.623 14.8027 30.3008 14.8027 29.7314V15.1113C14.8027 14.5312 15.1895 14.2412 15.8232 14.3486L27.5322 16.4004C28.6172 16.6045 29.1973 17.0449 29.1973 18.0439V31.1709C29.1973 32.3848 28.4883 32.9971 27.3281 32.7822L15.6084 30.709ZM17.4883 19.0752L25.7705 20.5361C26.2754 20.6221 26.5869 20.3105 26.5869 19.8594C26.5869 19.4512 26.3828 19.2363 26.0068 19.1611L17.7676 17.7217C17.2734 17.6357 16.9297 17.9258 16.9297 18.3662C16.9297 18.7422 17.1338 19.0107 17.4883 19.0752ZM17.4883 23.2646L25.7705 24.7256C26.2754 24.8115 26.5869 24.5 26.5869 24.0488C26.5869 23.6406 26.3828 23.4258 26.0068 23.3506L17.7676 21.9111C17.2734 21.8252 16.9297 22.1152 16.9297 22.5557C16.9297 22.9316 17.1338 23.2002 17.4883 23.2646Z" fill="white"></path>
  </symbol>
  <symbol fill="none" xmlns="http://www.w3.org/2000/svg" viewBox="0 0 44 44" id="plus">
    <path d="M10.2695 22.1289C10.2695 23.2773 11.1992 24.207 12.3477 24.207H19.9355V31.7949C19.9355 32.9297 20.8516 33.873 22 33.873C23.1484 33.873 24.0781 32.9297 24.0781 31.7949V24.207H31.666C32.8008 24.207 33.7305 23.2773 33.7305 22.1289C33.7305 20.9941 32.8008 20.0645 31.666 20.0645H24.0781V12.4766C24.0781 11.3418 23.1484 10.3984 22 10.3984C20.8516 10.3984 19.9355 11.3418 19.9355 12.4766V20.0645H12.3477C11.1992 20.0645 10.2695 20.9941 10.2695 22.1289Z" fill="white"></path>
  </symbol>
  <symbol fill="none" xmlns="http://www.w3.org/2000/svg" viewBox="0 0 44 44" id="list">
    <path d="M12.418 17.5283L13.3418 16.8516L14.2334 17.5283C14.5557 17.7646 14.8994 17.5176 14.7812 17.1631L14.4268 16.0674L15.3291 15.3906C15.6084 15.1758 15.501 14.7783 15.1465 14.7783H14.0186L13.6426 13.6074C13.5459 13.2959 13.127 13.2959 13.0303 13.6074L12.6543 14.7783H11.5156C11.1611 14.7783 11.043 15.1758 11.333 15.3906L12.2461 16.0674L11.8916 17.1631C11.7627 17.5176 12.1064 17.7539 12.418 17.5283ZM18.4336 16.626H31.958C32.4414 16.626 32.8174 16.25 32.8174 15.7666C32.8174 15.2725 32.4414 14.8965 31.958 14.8965H18.4336C17.9502 14.8965 17.5635 15.2725 17.5635 15.7666C17.5635 16.25 17.9502 16.626 18.4336 16.626ZM12.418 24.0059L13.3418 23.3291L14.2334 24.0059C14.5557 24.2529 14.8994 23.9951 14.7812 23.6406L14.4268 22.5449L15.3291 21.8682C15.6084 21.6533 15.501 21.2666 15.1465 21.2666H14.0186L13.6426 20.085C13.5459 19.7842 13.127 19.7842 13.0303 20.085L12.6543 21.2666H11.5156C11.1611 21.2666 11.043 21.6533 11.333 21.8682L12.2461 22.5449L11.8916 23.6406C11.7734 23.9951 12.1064 24.2314 12.418 24.0059ZM18.4336 23.125H31.958C32.4414 23.125 32.8174 22.7383 32.8174 22.2549C32.8174 21.7715 32.4414 21.3955 31.958 21.3955H18.4336C17.9502 21.3955 17.5635 21.7715 17.5635 22.2549C17.5635 22.7383 17.9502 23.125 18.4336 23.125ZM12.418 30.5156L13.3418 29.8389L14.2334 30.5156C14.5557 30.7627 14.8994 30.5049 14.7812 30.1504L14.4268 29.0547L15.3291 28.3779C15.6084 28.1631 15.501 27.7764 15.1465 27.7764H14.0186L13.6426 26.5947C13.5459 26.2939 13.127 26.2832 13.0303 26.5947L12.6543 27.7764H11.5156C11.1611 27.7764 11.043 28.1631 11.333 28.3779L12.2461 29.0547L11.8916 30.1504C11.7734 30.5049 12.1064 30.7412 12.418 30.5156ZM18.4336 29.6133H31.958C32.4414 29.6133 32.8174 29.2373 32.8174 28.7539C32.8174 28.2598 32.4414 27.8838 31.958 27.8838H18.4336C17.9502 27.8838 17.5635 28.2598 17.5635 28.7539C17.5635 29.2373 17.9502 29.6133 18.4336 29.6133Z" fill="white"></path>
  </symbol>
  <symbol fill="none" xmlns="http://www.w3.org/2000/svg" viewBox="0 0 44 44" id="location">
    <path d="M17.9609 14.499C17.9609 16.3896 19.2393 17.9688 20.9902 18.4092V25.209C20.9902 28.3779 21.5596 30.1074 21.9893 30.1074C22.4297 30.1074 22.9883 28.3887 22.9883 25.209V18.4092C24.7393 17.9795 26.0283 16.3896 26.0283 14.499C26.0283 12.2754 24.2344 10.4492 21.9893 10.4492C19.7549 10.4492 17.9609 12.2754 17.9609 14.499ZM20.8398 14.7246C20.1094 14.7246 19.4648 14.0801 19.4648 13.3281C19.4648 12.5869 20.1094 11.9531 20.8398 11.9531C21.6025 11.9531 22.2256 12.5869 22.2256 13.3281C22.2256 14.0801 21.6025 14.7246 20.8398 14.7246ZM22 34.0391C28.4775 34.0391 32.1943 31.8047 32.1943 29.4414C32.1943 26.6055 27.6934 24.876 24.7393 24.8438V26.4121C26.8125 26.4443 30.0244 27.5723 30.0244 29.1836C30.0244 31.0312 26.6191 32.3418 22 32.3418C17.3594 32.3418 13.9756 31.0527 13.9756 29.1836C13.9756 27.5723 17.1768 26.4443 19.25 26.4121V24.8438C16.2959 24.876 11.7949 26.6055 11.7949 29.4414C11.7949 31.8047 15.5225 34.0391 22 34.0391Z" fill="white"></path>
  </symbol>
</svg>