<svg width="0" height="0" class="hidden">
  <symbol fill="none" xmlns="http://www.w3.org/2000/svg" viewBox="0 0 44 44" id="menu">
    <path d="M15.1895 32.417L27.4033 34.5762C29.5947 34.9629 30.9268 33.749 30.9268 31.3535V18.0654C30.9268 16.8945 30.6045 16.1211 29.9707 15.5947V13.5107C29.9707 11.2549 28.4561 10.1699 25.9102 10.6211L14.8564 12.5762C13.7607 12.7051 13.0732 13.5322 13.0732 14.8213V29.9785C13.0732 31.3643 13.7822 32.1699 15.1895 32.417ZM27.6182 14.7031L19.9053 13.3389L26.5225 12.2432C27.5967 12.0605 28.2412 12.5117 28.2412 13.4463V14.832C28.0371 14.7783 27.833 14.7354 27.6182 14.7031ZM15.6084 30.709C15.0605 30.623 14.8027 30.3008 14.8027 29.7314V15.1113C14.8027 14.5312 15.1895 14.2412 15.8232 14.3486L27.5322 16.4004C28.6172 16.6045 29.1973 17.0449 29.1973 18.0439V31.1709C29.1973 32.3848 28.4883 32.9971 27.3281 32.7822L15.6084 30.709ZM17.4883 19.0752L25.7705 20.5361C26.2754 20.6221 26.5869 20.3105 26.5869 19.8594C26.5869 19.4512 26.3828 19.2363 26.0068 19.1611L17.7676 17.7217C17.2734 17.6357 16.9297 17.9258 16.9297 18.3662C16.9297 18.7422 17.1338 19.0107 17.4883 19.0752ZM17.4883 23.2646L25.7705 24.7256C26.2754 24.8115 26.5869 24.5 26.5869 24.0488C26.5869 23.6406 26.3828 23.4258 26.0068 23.3506L17.7676 21.9111C17.2734 21.8252 16.9297 22.1152 16.9297 22.5557C16.9297 22.9316 17.1338 23.2002 17.4883 23.2646Z" fill="white"></path>
  </symbol>
  <symbol fill="currentColor" xmlns="http://www.w3.org/2000/svg" viewBox="0 0 44 44" id="plus">
    <path d="M10.2695 22.1289C10.2695 23.2773 11.1992 24.207 12.3477 24.207H19.9355V31.7949C19.9355 32.9297 20.8516 33.873 22 33.873C23.1484 33.873 24.0781 32.9297 24.0781 31.7949V24.207H31.666C32.8008 24.207 33.7305 23.2773 33.7305 22.1289C33.7305 20.9941 32.8008 20.0645 31.666 20.0645H24.0781V12.4766C24.0781 11.3418 23.1484 10.3984 22 10.3984C20.8516 10.3984 19.9355 11.3418 19.9355 12.4766V20.0645H12.3477C11.1992 20.0645 10.2695 20.9941 10.2695 22.1289Z" fill="currentColor"></path>
  </symbol>
  <symbol fill="none" xmlns="http://www.w3.org/2000/svg" viewBox="0 0 44 44" id="list">
    <path d="M12.418 17.5283L13.3418 16.8516L14.2334 17.5283C14.5557 17.7646 14.8994 17.5176 14.7812 17.1631L14.4268 16.0674L15.3291 15.3906C15.6084 15.1758 15.501 14.7783 15.1465 14.7783H14.0186L13.6426 13.6074C13.5459 13.2959 13.127 13.2959 13.0303 13.6074L12.6543 14.7783H11.5156C11.1611 14.7783 11.043 15.1758 11.333 15.3906L12.2461 16.0674L11.8916 17.1631C11.7627 17.5176 12.1064 17.7539 12.418 17.5283ZM18.4336 16.626H31.958C32.4414 16.626 32.8174 16.25 32.8174 15.7666C32.8174 15.2725 32.4414 14.8965 31.958 14.8965H18.4336C17.9502 14.8965 17.5635 15.2725 17.5635 15.7666C17.5635 16.25 17.9502 16.626 18.4336 16.626ZM12.418 24.0059L13.3418 23.3291L14.2334 24.0059C14.5557 24.2529 14.8994 23.9951 14.7812 23.6406L14.4268 22.5449L15.3291 21.8682C15.6084 21.6533 15.501 21.2666 15.1465 21.2666H14.0186L13.6426 20.085C13.5459 19.7842 13.127 19.7842 13.0303 20.085L12.6543 21.2666H11.5156C11.1611 21.2666 11.043 21.6533 11.333 21.8682L12.2461 22.5449L11.8916 23.6406C11.7734 23.9951 12.1064 24.2314 12.418 24.0059ZM18.4336 23.125H31.958C32.4414 23.125 32.8174 22.7383 32.8174 22.2549C32.8174 21.7715 32.4414 21.3955 31.958 21.3955H18.4336C17.9502 21.3955 17.5635 21.7715 17.5635 22.2549C17.5635 22.7383 17.9502 23.125 18.4336 23.125ZM12.418 30.5156L13.3418 29.8389L14.2334 30.5156C14.5557 30.7627 14.8994 30.5049 14.7812 30.1504L14.4268 29.0547L15.3291 28.3779C15.6084 28.1631 15.501 27.7764 15.1465 27.7764H14.0186L13.6426 26.5947C13.5459 26.2939 13.127 26.2832 13.0303 26.5947L12.6543 27.7764H11.5156C11.1611 27.7764 11.043 28.1631 11.333 28.3779L12.2461 29.0547L11.8916 30.1504C11.7734 30.5049 12.1064 30.7412 12.418 30.5156ZM18.4336 29.6133H31.958C32.4414 29.6133 32.8174 29.2373 32.8174 28.7539C32.8174 28.2598 32.4414 27.8838 31.958 27.8838H18.4336C17.9502 27.8838 17.5635 28.2598 17.5635 28.7539C17.5635 29.2373 17.9502 29.6133 18.4336 29.6133Z" fill="white"></path>
  </symbol>
  <symbol fill="none" xmlns="http://www.w3.org/2000/svg" viewBox="0 0 44 44" id="location">
    <path d="M17.9609 14.499C17.9609 16.3896 19.2393 17.9688 20.9902 18.4092V25.209C20.9902 28.3779 21.5596 30.1074 21.9893 30.1074C22.4297 30.1074 22.9883 28.3887 22.9883 25.209V18.4092C24.7393 17.9795 26.0283 16.3896 26.0283 14.499C26.0283 12.2754 24.2344 10.4492 21.9893 10.4492C19.7549 10.4492 17.9609 12.2754 17.9609 14.499ZM20.8398 14.7246C20.1094 14.7246 19.4648 14.0801 19.4648 13.3281C19.4648 12.5869 20.1094 11.9531 20.8398 11.9531C21.6025 11.9531 22.2256 12.5869 22.2256 13.3281C22.2256 14.0801 21.6025 14.7246 20.8398 14.7246ZM22 34.0391C28.4775 34.0391 32.1943 31.8047 32.1943 29.4414C32.1943 26.6055 27.6934 24.876 24.7393 24.8438V26.4121C26.8125 26.4443 30.0244 27.5723 30.0244 29.1836C30.0244 31.0312 26.6191 32.3418 22 32.3418C17.3594 32.3418 13.9756 31.0527 13.9756 29.1836C13.9756 27.5723 17.1768 26.4443 19.25 26.4121V24.8438C16.2959 24.876 11.7949 26.6055 11.7949 29.4414C11.7949 31.8047 15.5225 34.0391 22 34.0391Z" fill="white"></path>
  </symbol>
  <symbol xmlns="http://www.w3.org/2000/svg" fill="#ebebf599" viewBox="0 0 24 24" id="visibility">
    <g id="SVGRepo_bgCarrier" stroke-width="0"></g>
    <g id="SVGRepo_tracerCarrier" stroke-linecap="round" stroke-linejoin="round"></g>
    <g id="SVGRepo_iconCarrier">
      <path d="M12 4.5C7 4.5 2.73 7.61 1 12c1.73 4.39 6 7.5 11 7.5s9.27-3.11 11-7.5c-1.73-4.39-6-7.5-11-7.5zM12 17c-2.76 0-5-2.24-5-5s2.24-5 5-5 5 2.24 5 5-2.24 5-5 5zm0-8c-1.66 0-3 1.34-3 3s1.34 3 3 3 3-1.34 3-3-1.34-3-3-3z"></path>
    </g>
  </symbol>
  <symbol fill="none" xmlns="http://www.w3.org/2000/svg" viewBox="0 0 24 24" id="wind">
    <g id="SVGRepo_bgCarrier" stroke-width="0"></g>
    <g id="SVGRepo_tracerCarrier" stroke-linecap="round" stroke-linejoin="round"></g>
    <g id="SVGRepo_iconCarrier">
      <path d="M3 8H5M7 5.85714V5.5C7 4.11929 8.11929 3 9.5 3C10.8807 3 12 4.11929 12 5.5C12 6.88071 10.8807 8 9.5 8H8" stroke="#ebebf599" stroke-width="1.5" stroke-linecap="round"></path>
      <path d="M4 14H5M15 17V17.5C15 19.433 16.567 21 18.5 21C20.433 21 22 19.433 22 17.5C22 15.567 20.433 14 18.5 14H9" stroke="#ebebf599" stroke-width="1.5" stroke-linecap="round"></path>
      <path d="M2 11H8M15 8V7.5C15 5.567 16.567 4 18.5 4C20.433 4 22 5.567 22 7.5C22 9.433 20.433 11 18.5 11H12.25" stroke="#ebebf599" stroke-width="1.5" stroke-linecap="round"></path>
    </g>
  </symbol>
  <symbol fill="none" xmlns="http://www.w3.org/2000/svg" viewBox="0 0 24 24" id="humidity">
    <g id="SVGRepo_bgCarrier" stroke-width="0"></g>
    <g id="SVGRepo_tracerCarrier" stroke-linecap="round" stroke-linejoin="round"></g>
    <g id="SVGRepo_iconCarrier">
      <path d="M15.0066 3.25608C16.8483 2.85737 19.1331 2.8773 22.2423 3.65268C22.7781 3.78629 23.1038 4.32791 22.9699 4.86241C22.836 5.39691 22.2931 5.7219 21.7573 5.58829C18.8666 4.86742 16.9015 4.88747 15.4308 5.20587C13.9555 5.52524 12.895 6.15867 11.7715 6.84363L11.6874 6.89494C10.6044 7.55565 9.40515 8.28729 7.82073 8.55069C6.17734 8.82388 4.23602 8.58235 1.62883 7.54187C1.11607 7.33724 0.866674 6.75667 1.0718 6.24513C1.27692 5.73359 1.85889 5.48479 2.37165 5.68943C4.76435 6.6443 6.32295 6.77699 7.492 6.58265C8.67888 6.38535 9.58373 5.83916 10.7286 5.14119C11.855 4.45445 13.1694 3.6538 15.0066 3.25608Z" fill="#ebebf599"></path>
      <path d="M22.2423 7.64302C19.1331 6.86765 16.8483 6.84772 15.0066 7.24642C13.1694 7.64415 11.855 8.44479 10.7286 9.13153C9.58373 9.8295 8.67888 10.3757 7.492 10.573C6.32295 10.7673 4.76435 10.6346 2.37165 9.67977C1.85889 9.47514 1.27692 9.72393 1.0718 10.2355C0.866674 10.747 1.11607 11.3276 1.62883 11.5322C4.23602 12.5727 6.17734 12.8142 7.82073 12.541C9.40515 12.2776 10.6044 11.546 11.6874 10.8853L11.7715 10.834C12.895 10.149 13.9555 9.51558 15.4308 9.19621C16.9015 8.87781 18.8666 8.85777 21.7573 9.57863C22.2931 9.71224 22.836 9.38726 22.9699 8.85275C23.1038 8.31825 22.7781 7.77663 22.2423 7.64302Z" fill="#ebebf599"></path>
      <path fill-rule="evenodd" clip-rule="evenodd" d="M18.9998 10.0266C18.6526 10.0266 18.3633 10.2059 18.1614 10.4772C18.0905 10.573 17.9266 10.7972 17.7089 11.111C17.4193 11.5283 17.0317 12.1082 16.6424 12.7555C16.255 13.3996 15.8553 14.128 15.5495 14.8397C15.2567 15.5213 14.9989 16.2614 14.9999 17.0117C15.0006 17.2223 15.0258 17.4339 15.0604 17.6412C15.1182 17.9872 15.2356 18.4636 15.4804 18.9521C15.7272 19.4446 16.1131 19.9674 16.7107 20.3648C17.3146 20.7664 18.0748 21 18.9998 21C19.9248 21 20.685 20.7664 21.2888 20.3648C21.8864 19.9674 22.2724 19.4446 22.5192 18.9522C22.764 18.4636 22.8815 17.9872 22.9393 17.6413C22.974 17.4337 22.9995 17.2215 22.9998 17.0107C23.0001 16.2604 22.743 15.5214 22.4501 14.8397C22.1444 14.128 21.7447 13.3996 21.3573 12.7555C20.968 12.1082 20.5803 11.5283 20.2907 11.111C20.073 10.7972 19.909 10.573 19.8382 10.4772C19.6363 10.2059 19.3469 10.0266 18.9998 10.0266ZM20.6119 15.6257C20.3552 15.0281 20.0049 14.3848 19.6423 13.782C19.4218 13.4154 19.2007 13.0702 18.9998 12.7674C18.7989 13.0702 18.5778 13.4154 18.3573 13.782C17.9948 14.3848 17.6445 15.0281 17.3878 15.6257L17.3732 15.6595C17.1965 16.0704 16.9877 16.5562 17.0001 17.0101C17.0121 17.3691 17.1088 17.7397 17.2693 18.0599C17.3974 18.3157 17.574 18.5411 17.8201 18.7048C18.06 18.8643 18.4248 19.0048 18.9998 19.0048C19.5748 19.0048 19.9396 18.8643 20.1795 18.7048C20.4256 18.5411 20.6022 18.3156 20.7304 18.0599C20.8909 17.7397 20.9876 17.3691 20.9996 17.01C21.0121 16.5563 20.8032 16.0705 20.6265 15.6597L20.6119 15.6257Z" fill="#ebebf599"></path>
      <path d="M14.1296 11.5308C14.8899 11.2847 15.4728 12.076 15.1153 12.7892C14.952 13.1151 14.7683 13.3924 14.4031 13.5214C13.426 13.8666 12.6166 14.3527 11.7715 14.8679L11.6874 14.9192C10.6044 15.5799 9.40516 16.3115 7.82074 16.5749C6.17735 16.8481 4.23604 16.6066 1.62884 15.5661C1.11608 15.3615 0.866688 14.7809 1.07181 14.2694C1.27694 13.7578 1.8589 13.509 2.37167 13.7137C4.76436 14.6685 6.32297 14.8012 7.49201 14.6069C8.67889 14.4096 9.58374 13.8634 10.7286 13.1654C11.8166 12.5021 12.9363 11.9171 14.1296 11.5308Z" fill="#ebebf599"></path>
    </g>
  </symbol>
  <symbol fill="none" xmlns="http://www.w3.org/2000/svg" viewBox="0 0 24 24" id="pressure">
    <g id="SVGRepo_bgCarrier" stroke-width="0"></g>
    <g id="SVGRepo_tracerCarrier" stroke-linecap="round" stroke-linejoin="round"></g>
    <g id="SVGRepo_iconCarrier">
      <path d="M12 9C11.4477 9 11 9.44771 11 10V15.2676C10.4022 15.6134 10 16.2597 10 17C10 18.1046 10.8954 19 12 19C13.1046 19 14 18.1046 14 17C14 16.2597 13.5978 15.6134 13 15.2676V10C13 9.44771 12.5523 9 12 9Z" fill="#ebebf599"></path>
      <path d="M11 6C11 5.44772 11.4477 5 12 5C12.5523 5 13 5.44772 13 6C13 6.55228 12.5523 7 12 7C11.4477 7 11 6.55228 11 6Z" fill="#ebebf599"></path>
      <path d="M16 7C15.4477 7 15 7.44772 15 8C15 8.55229 15.4477 9 16 9C16.5523 9 17 8.55229 17 8C17 7.44772 16.5523 7 16 7Z" fill="#ebebf599"></path>
      <path d="M6 13C5.44772 13 5 12.5523 5 12C5 11.4477 5.44772 11 6 11C6.55228 11 7 11.4477 7 12C7 12.5523 6.55228 13 6 13Z" fill="#ebebf599"></path>
      <path d="M7 8C7 8.55229 7.44772 9 8 9C8.55228 9 9 8.55228 9 8C9 7.44772 8.55228 7 8 7C7.44772 7 7 7.44772 7 8Z" fill="#ebebf599"></path>
      <path d="M18 13C17.4477 13 17 12.5523 17 12C17 11.4477 17.4477 11 18 11C18.5523 11 19 11.4477 19 12C19 12.5523 18.5523 13 18 13Z" fill="#ebebf599"></path>
      <path fill-rule="evenodd" clip-rule="evenodd" d="M12 23C18.0751 23 23 18.0751 23 12C23 5.92487 18.0751 1 12 1C5.92487 1 1 5.92487 1 12C1 18.0751 5.92487 23 12 23ZM12 20.9932C7.03321 20.9932 3.00683 16.9668 3.00683 12C3.00683 7.03321 7.03321 3.00683 12 3.00683C16.9668 3.00683 20.9932 7.03321 20.9932 12C20.9932 16.9668 16.9668 20.9932 12 20.9932Z" fill="#ebebf599"></path>
    </g>
  </symbol>
  <symbol version="1.1" xmlns="http://www.w3.org/2000/svg" xmlns:xlink="http://www.w3.org/1999/xlink" xmlnsSketch="http://www.bohemiancoding.com/sketch/ns" fill="#000000" viewBox="-6 0 32 32" id="raindrop">
    <g id="SVGRepo_bgCarrier" stroke-width="0"></g>
    <g id="SVGRepo_tracerCarrier" stroke-linecap="round" stroke-linejoin="round"></g>
    <g id="SVGRepo_iconCarrier">
      <title>raindrop</title>
      <desc>Created with Sketch Beta.</desc>
      <defs></defs>
      <g id="Page-1" stroke="none" stroke-width="1" fill="none" fill-rule="evenodd" sketchType="MSPage">
        <g id="Icon-Set-Filled" sketchType="MSLayerGroup" transform="translate(-316.000000, -829.000000)" fill="#ebebf599">
          <path d="M326,829 C322.917,832.731 316,845.478 316,851 C316,856.523 320.478,861 326,861 C331.522,861 336,856.523 336,851 C336,845.478 329.012,832.66 326,829" id="raindrop" sketchType="MSShapeGroup"></path>
        </g>
      </g>
    </g>
  </symbol>
  <symbol fill="ebebf599" xmlns="http://www.w3.org/2000/svg" viewBox="0 0 24 24" id="sun">
    <g id="SVGRepo_bgCarrier" stroke-width="0"></g>
    <g id="SVGRepo_tracerCarrier" stroke-linecap="round" stroke-linejoin="round"></g>
    <g id="SVGRepo_iconCarrier">
      <rect width="24" height="24" fill="none"></rect>
      <path fill-rule="evenodd" clip-rule="evenodd" d="M8 12C8 9.79086 9.79086 8 12 8C14.2091 8 16 9.79086 16 12C16 14.2091 14.2091 16 12 16C9.79086 16 8 14.2091 8 12Z" fill="#ebebf599"></path>
      <path fill-rule="evenodd" clip-rule="evenodd" d="M12 2C12.5523 2 13 2.44772 13 3V5C13 5.55228 12.5523 6 12 6C11.4477 6 11 5.55228 11 5V3C11 2.44772 11.4477 2 12 2Z" fill="#ebebf599"></path>
      <path fill-rule="evenodd" clip-rule="evenodd" d="M19.7071 4.29289C20.0976 4.68342 20.0976 5.31658 19.7071 5.70711L17.7071 7.70711C17.3166 8.09763 16.6834 8.09763 16.2929 7.70711C15.9024 7.31658 15.9024 6.68342 16.2929 6.29289L18.2929 4.29289C18.6834 3.90237 19.3166 3.90237 19.7071 4.29289Z" fill="#ebebf599"></path>
      <path fill-rule="evenodd" clip-rule="evenodd" d="M18 12C18 11.4477 18.4477 11 19 11H21C21.5523 11 22 11.4477 22 12C22 12.5523 21.5523 13 21 13H19C18.4477 13 18 12.5523 18 12Z" fill="#ebebf599"></path>
      <path fill-rule="evenodd" clip-rule="evenodd" d="M16.2929 16.2929C16.6834 15.9024 17.3166 15.9024 17.7071 16.2929L19.7071 18.2929C20.0976 18.6834 20.0976 19.3166 19.7071 19.7071C19.3166 20.0976 18.6834 20.0976 18.2929 19.7071L16.2929 17.7071C15.9024 17.3166 15.9024 16.6834 16.2929 16.2929Z" fill="#ebebf599"></path>
      <path fill-rule="evenodd" clip-rule="evenodd" d="M12 18C12.5523 18 13 18.4477 13 19V21C13 21.5523 12.5523 22 12 22C11.4477 22 11 21.5523 11 21V19C11 18.4477 11.4477 18 12 18Z" fill="#ebebf599"></path>
      <path fill-rule="evenodd" clip-rule="evenodd" d="M7.70711 16.2929C8.09763 16.6834 8.09763 17.3166 7.70711 17.7071L5.70711 19.7071C5.31658 20.0976 4.68342 20.0976 4.29289 19.7071C3.90237 19.3166 3.90237 18.6834 4.29289 18.2929L6.29289 16.2929C6.68342 15.9024 7.31658 15.9024 7.70711 16.2929Z" fill="#ebebf599"></path>
      <path fill-rule="evenodd" clip-rule="evenodd" d="M2 12C2 11.4477 2.44772 11 3 11H5C5.55228 11 6 11.4477 6 12C6 12.5523 5.55228 13 5 13H3C2.44772 13 2 12.5523 2 12Z" fill="#ebebf599"></path>
      <path fill-rule="evenodd" clip-rule="evenodd" d="M4.29289 4.29289C4.68342 3.90237 5.31658 3.90237 5.70711 4.29289L7.70711 6.29289C8.09763 6.68342 8.09763 7.31658 7.70711 7.70711C7.31658 8.09763 6.68342 8.09763 6.29289 7.70711L4.29289 5.70711C3.90237 5.31658 3.90237 4.68342 4.29289 4.29289Z" fill="#ebebf599"></path>
    </g>
  </symbol>
  <symbol fill="#ebebf599" xmlns="http://www.w3.org/2000/svg" viewBox="0 0 56 56" id="sunrise">
    <g id="SVGRepo_bgCarrier" stroke-width="0"></g>
    <g id="SVGRepo_tracerCarrier" stroke-linecap="round" stroke-linejoin="round"></g>
    <g id="SVGRepo_iconCarrier">
      <path d="M 28.0108 24.2218 C 28.9722 24.2218 29.7806 23.3479 29.7806 22.2772 L 29.7806 14.1056 L 29.5185 10.8064 L 31.1353 12.6635 L 33.8665 15.4166 C 34.1942 15.7225 34.6093 15.9191 35.0463 15.9191 C 35.9203 15.9191 36.5321 15.3292 36.5321 14.4552 C 36.5321 13.9964 36.3791 13.6468 36.0077 13.2972 L 29.1907 6.9609 C 28.7319 6.5457 28.4041 6.3928 28.0108 6.3928 C 27.5957 6.3928 27.2898 6.5457 26.8310 6.9609 L 20.0140 13.2972 C 19.6426 13.6468 19.4896 13.9964 19.4896 14.4552 C 19.4896 15.3292 20.1014 15.9191 20.9754 15.9191 C 21.3905 15.9191 21.8275 15.7225 22.1334 15.4166 L 25.0830 12.4451 L 26.4814 10.8064 L 26.2192 14.1056 L 26.2192 22.2772 C 26.2192 23.3479 27.0495 24.2218 28.0108 24.2218 Z M 39.2631 30.2085 C 39.9625 30.8859 41.1206 30.8859 41.9287 30.0993 L 45.7305 26.2975 C 46.5390 25.4891 46.5171 24.3529 45.8182 23.6756 C 45.1626 22.9764 44.0046 22.9546 43.1960 23.7630 L 39.3942 27.5648 C 38.6078 28.3732 38.5859 29.5531 39.2631 30.2085 Z M 14.0928 30.0993 C 14.9013 30.8859 16.0592 30.9077 16.7366 30.2085 C 17.4139 29.5312 17.4139 28.3732 16.6055 27.5648 L 12.8037 23.7630 C 11.9953 22.9546 10.8810 22.9983 10.1818 23.6756 C 9.4826 24.3311 9.4826 25.4891 10.2910 26.2975 Z M 1.9009 51.9924 L 54.0991 51.9924 C 55.1476 51.9924 56.0000 51.2058 56.0000 50.2226 C 56.0000 49.2612 55.1476 48.4746 54.0991 48.4746 L 37.4716 48.4746 C 38.9574 46.5082 39.8533 44.0829 39.8533 41.4610 C 39.8533 34.9936 34.4783 29.5968 28.0108 29.5968 C 21.5434 29.5968 16.1685 34.9936 16.1685 41.4610 C 16.1685 44.0829 17.0643 46.5082 18.5282 48.4746 L 1.9009 48.4746 C .8740 48.4746 0 49.2612 0 50.2226 C 0 51.2058 .8740 51.9924 1.9009 51.9924 Z M 4.7413 42.7064 L 10.1162 42.7064 C 11.2524 42.7064 12.1045 41.8980 12.0827 40.9366 C 12.0608 39.9534 11.2524 39.1449 10.1162 39.1449 L 4.7413 39.1449 C 3.6051 39.1449 2.7967 39.9534 2.7967 40.9366 C 2.7967 41.8980 3.6051 42.7064 4.7413 42.7064 Z M 45.9054 42.7064 L 51.2805 42.7064 C 52.3947 42.7064 53.2248 41.8980 53.2248 40.9366 C 53.2248 39.9534 52.3947 39.1449 51.2805 39.1449 L 45.9054 39.1449 C 44.7693 39.1449 43.9173 39.9534 43.9392 40.9366 C 43.9607 41.8980 44.7693 42.7064 45.9054 42.7064 Z"></path>
    </g>
  </symbol>
  <symbol xmlns="http://www.w3.org/2000/svg" fill="#ebebf599" viewBox="0 0 48 48" id="temperature">
    <g id="SVGRepo_bgCarrier" stroke-width="0"></g>
    <g id="SVGRepo_tracerCarrier" stroke-linecap="round" stroke-linejoin="round"></g>
    <g id="SVGRepo_iconCarrier">
      <title>thermometer</title>
      <g id="Layer_2">
        <g id="invisible_box">
          <rect width="48" height="48" fill="none"></rect>
        </g>
        <g id="Layer_6">
          <g id="icons_Q2">
            <g>
              <path d="M29,10a8,8,0,0,0-16,0V27.5A10.5,10.5,0,0,0,10,35a11,11,0,0,0,22,0,10.5,10.5,0,0,0-3-7.5ZM21,42a7,7,0,0,1-7-7,6.8,6.8,0,0,1,3-5.7V10a4,4,0,0,1,8,0V29.3A6.8,6.8,0,0,1,28,35,7,7,0,0,1,21,42Z"></path>
              <path d="M23,30.4V17H19V30.4A5.1,5.1,0,0,0,16,35a5,5,0,0,0,10,0A5.1,5.1,0,0,0,23,30.4Z"></path>
              <path d="M40,23H34a2,2,0,0,0,0,4h6a2,2,0,0,0,0-4Z"></path>
              <path d="M40,17H34a2,2,0,0,0,0,4h6a2,2,0,0,0,0-4Z"></path>
              <path d="M40,11H34a2,2,0,0,0,0,4h6a2,2,0,0,0,0-4Z"></path>
              <path d="M34,9h6a2,2,0,0,0,0-4H34a2,2,0,0,0,0,4Z"></path>
            </g>
          </g>
        </g>
      </g>
    </g>
  </symbol>
  <symbol fill="#ebebf599" version="1.1" id="air" xmlns="http://www.w3.org/2000/svg" xmlns:xlink="http://www.w3.org/1999/xlink" xml:space="preserve" viewBox="0 0 58 58">
    <g id="SVGRepo_bgCarrier" stroke-width="0"></g>
    <g id="SVGRepo_tracerCarrier" stroke-linecap="round" stroke-linejoin="round" stroke="#CCCCCC" stroke-width="0.696"></g>
    <g id="SVGRepo_iconCarrier">
      <g>
        <circle cx="15" cy="10" r="1"></circle>
        <circle cx="11" cy="14" r="1"></circle>
        <circle cx="7" cy="18" r="1"></circle>
        <circle cx="15" cy="18" r="1"></circle>
        <circle cx="11" cy="22" r="1"></circle>
        <circle cx="7" cy="26" r="1"></circle>
        <circle cx="15" cy="26" r="1"></circle>
        <circle cx="11" cy="30" r="1"></circle>
        <circle cx="7" cy="34" r="1"></circle>
        <circle cx="15" cy="34" r="1"></circle>
        <circle cx="11" cy="38" r="1"></circle>
        <circle cx="7" cy="42" r="1"></circle>
        <circle cx="15" cy="42" r="1"></circle>
        <circle cx="11" cy="46" r="1"></circle>
        <circle cx="15" cy="50" r="1"></circle>
        <circle cx="23" cy="10" r="1"></circle>
        <circle cx="31" cy="10" r="1"></circle>
        <circle cx="19" cy="14" r="1"></circle>
        <circle cx="27" cy="14" r="1"></circle>
        <circle cx="19" cy="6" r="1"></circle>
        <circle cx="27" cy="6" r="1"></circle>
        <circle cx="23" cy="18" r="1"></circle>
        <circle cx="31" cy="18" r="1"></circle>
        <circle cx="19" cy="22" r="1"></circle>
        <circle cx="27" cy="22" r="1"></circle>
        <circle cx="23" cy="26" r="1"></circle>
        <circle cx="31" cy="26" r="1"></circle>
        <circle cx="19" cy="30" r="1"></circle>
        <circle cx="27" cy="30" r="1"></circle>
        <circle cx="23" cy="34" r="1"></circle>
        <circle cx="31" cy="34" r="1"></circle>
        <circle cx="19" cy="38" r="1"></circle>
        <circle cx="27" cy="38" r="1"></circle>
        <circle cx="23" cy="42" r="1"></circle>
        <circle cx="31" cy="42" r="1"></circle>
        <circle cx="19" cy="46" r="1"></circle>
        <circle cx="27" cy="46" r="1"></circle>
        <circle cx="23" cy="50" r="1"></circle>
        <circle cx="31" cy="50" r="1"></circle>
        <circle cx="27" cy="54" r="1"></circle>
        <circle cx="39" cy="10" r="1"></circle>
        <circle cx="35" cy="14" r="1"></circle>
        <circle cx="35" cy="6" r="1"></circle>
        <circle cx="39" cy="18" r="1"></circle>
        <circle cx="35" cy="22" r="1"></circle>
        <circle cx="39" cy="26" r="1"></circle>
        <circle cx="35" cy="30" r="1"></circle>
        <circle cx="39" cy="34" r="1"></circle>
        <circle cx="35" cy="38" r="1"></circle>
        <circle cx="39" cy="42" r="1"></circle>
        <circle cx="35" cy="46" r="1"></circle>
        <circle cx="39" cy="50" r="1"></circle>
        <circle cx="35" cy="54" r="1"></circle>
        <circle cx="43" cy="14" r="1"></circle>
        <circle cx="47" cy="18" r="1"></circle>
        <circle cx="43" cy="22" r="1"></circle>
        <circle cx="47" cy="26" r="1"></circle>
        <circle cx="43" cy="30" r="1"></circle>
        <circle cx="47" cy="34" r="1"></circle>
        <circle cx="43" cy="38" r="1"></circle>
        <circle cx="47" cy="42" r="1"></circle>
        <circle cx="43" cy="46" r="1"></circle>
        <circle cx="51" cy="22" r="1"></circle>
        <circle cx="51" cy="30" r="1"></circle>
        <circle cx="51" cy="38" r="1"></circle>
        <path d="M29,0C13.01,0,0,13.01,0,29s13.01,29,29,29s29-13.01,29-29S44.99,0,29,0z M55.661,33.261C55.484,33.103,55.256,33,55,33 c-0.552,0-1,0.448-1,1s0.448,1,1,1c0.119,0,0.229-0.03,0.335-0.068c-0.839,3.725-2.444,7.162-4.649,10.131 c-0.373,0.125-0.64,0.455-0.672,0.862c-0.892,1.105-1.866,2.142-2.919,3.094C47.063,49.016,47.034,49,47,49 c-0.534,0-0.961,0.421-0.99,0.948C41.364,53.728,35.443,56,29,56c-3.192,0-6.254-0.56-9.098-1.582C19.961,54.29,20,54.151,20,54 c0-0.552-0.448-1-1-1c-0.438,0-0.8,0.286-0.935,0.678C11.521,50.766,6.342,45.33,3.773,38.609C3.907,38.439,4,38.233,4,38 c0-0.473-0.335-0.85-0.776-0.955c-0.686-2.194-1.095-4.508-1.195-6.901C2.101,30.625,2.499,31,3,31c0.552,0,1-0.448,1-1 s-0.448-1-1-1c-0.513,0-0.919,0.391-0.977,0.888C2.013,29.593,2,29.298,2,29c0-2.084,0.245-4.112,0.695-6.062 C2.792,22.97,2.892,23,3,23c0.552,0,1-0.448,1-1c0-0.482-0.348-0.865-0.801-0.96c2.77-8.96,10.088-15.938,19.245-18.231 C22.605,2.92,22.789,3,23,3c0.367,0,0.673-0.207,0.847-0.501C25.516,2.175,27.238,2,29,2c0.337,0,0.671,0.013,1.005,0.026 C30.019,2.565,30.457,3,31,3c0.493,0,0.885-0.364,0.966-0.834c3.678,0.404,7.134,1.551,10.219,3.285C42.078,5.611,42,5.793,42,6 c0,0.552,0.448,1,1,1c0.377,0,0.693-0.217,0.864-0.525c1.162,0.769,2.263,1.622,3.29,2.556C47.101,9.023,47.054,9,47,9 c-0.552,0-1,0.448-1,1s0.448,1,1,1s1-0.448,1-1c0-0.071-0.026-0.134-0.04-0.2c1.018,1.006,1.956,2.092,2.806,3.248 C50.33,13.155,50,13.531,50,14c0,0.552,0.448,1,1,1c0.337,0,0.62-0.177,0.801-0.433c2.035,3.203,3.413,6.86,3.945,10.784 C55.563,25.14,55.302,25,55,25c-0.552,0-1,0.448-1,1s0.448,1,1,1c0.385,0,0.71-0.225,0.877-0.544C55.955,27.294,56,28.142,56,29 C56,30.45,55.882,31.873,55.661,33.261z"></path>
      </g>
    </g>
  </symbol>
</svg>